<?xml version="1.0" encoding="utf-8"?>
<!-- Generator: Adobe Illustrator 25.4.1, SVG Export Plug-In . SVG Version: 6.00 Build 0)  -->
<svg version="1.1" id="Layer_1" xmlns="http://www.w3.org/2000/svg" xmlns:xlink="http://www.w3.org/1999/xlink" x="0px" y="0px"
	 viewBox="0 0 113 107.8" style="enable-background:new 0 0 113 107.8;" xml:space="preserve">
<g>
	<path d="M19.8,8c7.1,0,11.5,5.2,11.6,11.3c0,6-4.5,11.3-11.8,11.3h-0.1c-7,0-11.5-5.5-11.5-11.5C8,13,12.7,8,19.8,8 M63.5,39.8v6.9
		c0,0,7.1-6.7,18.2-6.7c13.7,0,23.4,9.9,23.4,29.1v30.7H82V67.5c0-5.1-4.1-9.2-9.2-9.2c-5.1,0-9.2,4.1-9.2,9.2v32.3H40.4
		c0,0,0.3-55.4,0-60H63.5 M31.2,39.8v60H8.1v-60H31.2 M19.8,0C8.5,0,0,8.2,0,19.1c0,5.2,1.9,9.8,5.1,13.3c-2.9,1.2-5,4.1-5,7.4v60
		c0,4.4,3.6,8,8,8h23.1c1.7,0,3.3-0.5,4.6-1.5c1.3,0.9,3,1.5,4.6,1.5h23.1c4.4,0,8-3.6,8-8V67.5c0-0.7,0.6-1.2,1.2-1.2
		c0.7,0,1.2,0.6,1.2,1.2v32.3c0,4.4,3.6,8,8,8H105c4.4,0,8-3.6,8-8V69.1C113,46.6,100.7,32,81.7,32c-4.8,0-9,1-12.4,2.2
		c-1.5-1.5-3.5-2.4-5.7-2.4H40.4c-1.7,0-3.3,0.5-4.6,1.5c-0.5-0.3-1-0.6-1.5-0.8c3.2-3.4,5.1-8,5.1-13.2c0-0.1,0-0.1,0-0.2
		C39.1,8.2,30.7,0,19.8,0L19.8,0z"/>
</g>
</svg>
