<?xml version="1.0" encoding="utf-8"?>
<!-- Generator: Adobe Illustrator 25.2.1, SVG Export Plug-In . SVG Version: 6.00 Build 0)  -->
<svg version="1.1" id="Layer_1" xmlns="http://www.w3.org/2000/svg" xmlns:xlink="http://www.w3.org/1999/xlink" x="0px" y="0px"
	 viewBox="0 0 95.9 95.9" style="enable-background:new 0 0 95.9 95.9;" xml:space="preserve">
<style type="text/css">
	.st0{fill:none;stroke:#000000;stroke-width:4;stroke-linecap:round;stroke-linejoin:round;}
</style>
<path d="M53.4,64.5c-0.7,0-1.2-0.6-1.2-1.2V32.5c0-0.7,0.5-1.2,1.2-1.2h11.4c8.5,0,10.3,5,10.3,9.2c0,2.4-0.6,4.4-1.9,5.8
	c3.1,1.3,4.8,4.2,4.8,8.4c0,6.1-4.6,9.8-12.3,9.8L53.4,64.5z"/>
<path d="M22.5,64.5c-0.7,0-1.2-0.6-1.2-1.2c0,0,0,0,0,0V32.5c0-0.7,0.5-1.2,1.2-1.2h11.9c7.4,0,11.8,4,11.8,10.7
	c0,4.5-2.2,7.9-5.8,9.4l8.5,11.1c0.4,0.5,0.4,1.3-0.1,1.7c-0.2,0.2-0.5,0.3-0.8,0.3L22.5,64.5z"/>
<path class="st0" d="M47.9,2C22.6,2,2,22.6,2,47.9c0,25.4,20.6,45.9,45.9,45.9s45.9-20.6,45.9-45.9S73.3,2,47.9,2"/>
</svg>
