<?xml version="1.0" encoding="UTF-8"?>
<svg id="Layer_1" xmlns="http://www.w3.org/2000/svg" version="1.1" viewBox="0 0 76 100">
  <!-- Generator: Adobe Illustrator 29.4.0, SVG Export Plug-In . SVG Version: 2.1.0 Build 152)  -->
  <defs>
    <style>
      .st0 {
        fill: none;
        stroke: #000;
        stroke-linecap: round;
        stroke-linejoin: round;
        stroke-width: 8px;
      }
    </style>
  </defs>
  <polygon class="st0" points="72.1 96 4.1 96 4.1 4 48.1 4 72.1 28 72.1 96"/>
  <polyline class="st0" points="48.1 4 48.1 28 72.1 28"/>
  <line class="st0" x1="18.14" y1="44" x2="58.06" y2="44"/>
  <line class="st0" x1="18.14" y1="56" x2="58.06" y2="56"/>
  <line class="st0" x1="18.14" y1="68" x2="58.06" y2="68"/>
  <line class="st0" x1="18.14" y1="80" x2="58.06" y2="80"/>
  <path d="M28.01,22.91c1.41-1.36,2.15-3.41,1.66-5.61s-2.29-3.98-4.51-4.44c-3.83-.79-7.2,2.11-7.2,5.8,0,1.63.66,3.11,1.73,4.18.32.32.22.85-.21,1-2.38.84-4.27,2.4-5.25,4.59-.75,1.68.44,3.57,2.28,3.57,3.94,0,10.81,0,14.75,0,1.75,0,3.02-1.77,2.36-3.38-.96-2.33-2.94-3.96-5.43-4.82-.38-.13-.47-.61-.18-.89Z"/>
</svg>