<?xml version="1.0" encoding="utf-8"?>
<!-- Generator: Adobe Illustrator 25.4.1, SVG Export Plug-In . SVG Version: 6.00 Build 0)  -->
<svg version="1.1" id="Layer_1" xmlns="http://www.w3.org/2000/svg" xmlns:xlink="http://www.w3.org/1999/xlink" x="0px" y="0px"
	 viewBox="0 0 105.7 87.9" style="enable-background:new 0 0 105.7 87.9;" xml:space="preserve">
<g id="Layer_2_1_">
	<g id="Layer_1-2">
		<g>
			<path d="M69.2,8c4.9,0,9.7,1.9,13.4,5.7c4-0.8,7.9-2.3,11.5-4.4c-1.4,4.3-1.5,5.8-5.3,8.1c1.4,0.7,2.8,1,4.1,1
				c1.5,0,3-0.4,4.8-1.1c-2.5,3.7-6.7,6.1-10.1,8.5c0,0.8,0,1.6,0,2.4c0,24-18.3,51.7-51.7,51.7C26,79.9,16.3,77,8,71.7
				c1.5,0.2,3,0.3,4.5,0.3c8.1,0,16-2.7,22.4-7.8c-7.8-0.1-14.6-5.2-17-12.6c1.1,0.2,2.3,0.3,3.4,0.3c1.6,0,3.2-0.2,4.8-0.6
				c-8.5-1.7-14.6-9.1-14.6-17.8v-0.2c2.5,1.4,5.3,2.2,8.2,2.3c-8-5.4-10.4-16-5.6-24.3c9.2,11.4,22.8,18.3,37.4,19
				c-1.4-6.3,0.6-13,5.3-17.4C60.3,9.6,64.8,8,69.2,8 M69.2,0c-6.7,0-13.1,2.5-17.9,7.1c-4,3.8-6.7,8.7-7.7,14
				c-9.1-2.3-17.3-7.4-23.2-14.8c-1.5-1.9-3.8-3-6.2-3c-0.2,0-0.4,0-0.6,0c-2.6,0.2-5,1.7-6.3,4C3.3,14,2.7,21.8,5,28.7
				c-1,1.3-1.5,3-1.5,4.6v0.2c0,6.5,2.4,12.5,6.5,17.2c-0.1,1.1,0,2.3,0.3,3.4c1.2,3.7,3.2,7,5.7,9.7c-1.1,0.1-2.3,0.2-3.5,0.2
				c-1.2,0-2.3-0.1-3.5-0.2c-0.3,0-0.7-0.1-1-0.1c-3.3,0-6.4,2.1-7.5,5.3c-1.3,3.5,0.1,7.4,3.2,9.5c9.7,6.2,20.8,9.5,32.2,9.5
				c17.5,0,33.3-6.9,44.4-19.6c9.3-10.6,14.8-24.4,15.3-38.3c3-2.1,6.3-4.6,8.8-8.3c2-2.9,1.8-6.8-0.5-9.6c-0.5-0.7-1.2-1.2-1.9-1.7
				c0.4-2.8-0.6-5.7-2.9-7.5c-1.5-1.2-3.2-1.8-5-1.8c-1.4,0-2.8,0.4-4,1.1c-1.8,1-3.6,1.9-5.5,2.5C80.1,1.8,74.7,0,69.2,0L69.2,0
				C69.2,0,69.2,0,69.2,0L69.2,0z"/>
		</g>
	</g>
</g>
</svg>
