<?xml version="1.0" encoding="utf-8"?>
<!-- Generator: Adobe Illustrator 24.1.1, SVG Export Plug-In . SVG Version: 6.00 Build 0)  -->
<svg version="1.1" id="Layer_1" xmlns="http://www.w3.org/2000/svg" xmlns:xlink="http://www.w3.org/1999/xlink" x="0px" y="0px"
	 viewBox="0 0 93.8 76" style="enable-background:new 0 0 93.8 76;" xml:space="preserve">
<style type="text/css">
	.st0{fill:none;stroke:#000000;stroke-width:4;stroke-linejoin:round;}
</style>
<g id="Layer_2_1_">
	<g id="Layer_1-2">
		<path class="st0" d="M91.8,11.3c-3.3,1.4-6,1.5-8.9,0.1c3.8-2.3,3.9-3.8,5.3-8.1c-3.6,2.1-7.5,3.6-11.5,4.4
			C69.7,0.4,58.2,0,50.9,6.9c-4.7,4.4-6.7,11.1-5.3,17.4C31,23.6,17.4,16.7,8.2,5.3c-4.8,8.3-2.4,18.9,5.6,24.3
			c-2.9-0.1-5.7-0.9-8.2-2.3v0.2c0,8.7,6.1,16.1,14.6,17.8c-2.7,0.7-5.5,0.8-8.2,0.3c2.4,7.4,9.2,12.5,17,12.6
			c-7.6,6-17.3,8.7-26.9,7.5c8.3,5.3,18,8.2,27.9,8.2c33.4,0,51.7-27.7,51.7-51.7c0-0.8,0-1.6,0-2.4C85.1,17.4,89.3,15,91.8,11.3z"
			/>
	</g>
</g>
</svg>
